# xmcd
#
# Track frame offsets: 
#        150
#        32827
#        72861
#        114851
#        147012
#        159584
#        192651
#        242221
#
# Disc length: 3908 seconds
#
# Revision: 0
# Processed by: cddbd v1.5.2PL0 Copyright (c) Steve Scherf et al.
# Submitted via: ExactAudioCopy v1.1
#
DISCID=6c0f4208
DTITLE=Summoning - With Doom We Come
DYEAR=2018
DGENRE=Atmospheric Black Metal
TTITLE0=Tar-Calion
TTITLE1=Silvertine
TTITLE2=Carcharoth
TTITLE3=Herumor
TTITLE4=Barrow-downs
TTITLE5=Night Fell Behind
TTITLE6=Mirklands
TTITLE7=With Doom I Come
EXTD=
EXTT0=
EXTT1=
EXTT2=
EXTT3=
EXTT4=
EXTT5=
EXTT6=
EXTT7=
PLAYORDER=
